<svg xmlns="http://www.w3.org/2000/svg" viewBox="0 0 900 700" width="900" height="700">
  <defs>
    <pattern id="grid" width="28" height="28" patternUnits="userSpaceOnUse">
      <path d="M 28 0 L 0 0 0 28" fill="none" stroke="#1e293b" stroke-width="1"/>
    </pattern>
    <radialGradient id="glow" cx="50%" cy="45%" r="65%">
      <stop offset="0%" stop-color="#c084fc" stop-opacity="0.18"/>
      <stop offset="100%" stop-color="#c084fc" stop-opacity="0"/>
    </radialGradient>
  </defs>
  <rect width="900" height="700" fill="#0a0e14"/>
  <rect width="900" height="700" fill="url(#grid)"/>
  <rect width="900" height="700" fill="url(#glow)"/>
  <rect x="24" y="24" width="852" height="652" fill="none" stroke="#c084fc" stroke-width="1" opacity="0.35" stroke-dasharray="6 6"/>
  <rect x="502.1265454926187" y="320.9735555811662" width="142.71629916630513" height="142.71629916630513" rx="10" transform="rotate(35.798063294868015 573.4846950757712 392.33170516431875)" fill="none" stroke="#c084fc" stroke-width="2.5" opacity="0.9"/>
  <rect x="454.10276897442657" y="179.62938784138737" width="141.61129955277374" height="141.61129955277374" rx="10" transform="rotate(36.00039662607033 524.9084187508134 250.43503761777424)" fill="none" stroke="#c084fc" stroke-width="2.5" opacity="0.9"/>
  <rect x="404.27317028598543" y="350.43102628571495" width="100.69365264880176" height="100.69365264880176" rx="10" transform="rotate(3.669626714507875 454.6199966103863 400.7778526101158)" fill="none" stroke="#c084fc" stroke-width="2.5" opacity="0.9"/>
  <circle cx="310.5954408694969" cy="377.6953089924973" r="87.87225099647057" fill="none" stroke="#c084fc" stroke-width="2" opacity="0.5"/>
  <circle cx="338.1175965248224" cy="395.5432821091" r="44.30925250254071" fill="none" stroke="#c084fc" stroke-width="2" opacity="0.5"/>
  <g font-family="'JetBrains Mono', monospace" fill="#c084fc">
    <text x="48" y="644" font-size="26" font-weight="700" letter-spacing="0.5">Adorno navideño geométrico</text>
    <text x="48" y="670" font-size="14" opacity="0.65" letter-spacing="2">ARASTER · PREVIEW</text>
  </g>
  <g stroke="#c084fc" stroke-width="1.5" opacity="0.8">
    <line x1="24" y1="60" x2="24" y2="44" />
    <line x1="24" y1="44" x2="40" y2="44" />
    <line x1="876" y1="60" x2="876" y2="44" />
    <line x1="876" y1="44" x2="860" y2="44" />
  </g>
</svg>