<svg xmlns="http://www.w3.org/2000/svg" viewBox="0 0 900 700" width="900" height="700">
  <defs>
    <pattern id="grid" width="28" height="28" patternUnits="userSpaceOnUse">
      <path d="M 28 0 L 0 0 0 28" fill="none" stroke="#1e293b" stroke-width="1"/>
    </pattern>
    <radialGradient id="glow" cx="50%" cy="45%" r="65%">
      <stop offset="0%" stop-color="#34d399" stop-opacity="0.18"/>
      <stop offset="100%" stop-color="#34d399" stop-opacity="0"/>
    </radialGradient>
  </defs>
  <rect width="900" height="700" fill="#0a0e14"/>
  <rect width="900" height="700" fill="url(#grid)"/>
  <rect width="900" height="700" fill="url(#glow)"/>
  <rect x="24" y="24" width="852" height="652" fill="none" stroke="#34d399" stroke-width="1" opacity="0.35" stroke-dasharray="6 6"/>
  <rect x="350.1008505188398" y="238.67508832769238" width="146.67058585522258" height="146.67058585522258" rx="10" transform="rotate(32.16243983812744 423.4361434464511 312.0103812553037)" fill="none" stroke="#34d399" stroke-width="2.5" opacity="0.9"/>
  <rect x="321.21937157177337" y="200.7015126900289" width="95.40362121323292" height="95.40362121323292" rx="10" transform="rotate(0.7315528396198306 368.9211821783898 248.40332329664534)" fill="none" stroke="#34d399" stroke-width="2.5" opacity="0.9"/>
  <rect x="332.81106522437705" y="281.41503862636864" width="144.44658186493746" height="144.44658186493746" rx="10" transform="rotate(48.70584013345923 405.0343561568458 353.63832955883737)" fill="none" stroke="#34d399" stroke-width="2.5" opacity="0.9"/>
  <circle cx="484.6098662282386" cy="340.27283673653045" r="66.57345534608395" fill="none" stroke="#34d399" stroke-width="2" opacity="0.5"/>
  <circle cx="343.78316404474117" cy="346.8072283811901" r="107.02264550469008" fill="none" stroke="#34d399" stroke-width="2" opacity="0.5"/>
  <g font-family="'JetBrains Mono', monospace" fill="#34d399">
    <text x="48" y="644" font-size="26" font-weight="700" letter-spacing="0.5">Sujetalibros geométricos</text>
    <text x="48" y="670" font-size="14" opacity="0.65" letter-spacing="2">ARASTER · PREVIEW</text>
  </g>
  <g stroke="#34d399" stroke-width="1.5" opacity="0.8">
    <line x1="24" y1="60" x2="24" y2="44" />
    <line x1="24" y1="44" x2="40" y2="44" />
    <line x1="876" y1="60" x2="876" y2="44" />
    <line x1="876" y1="44" x2="860" y2="44" />
  </g>
</svg>